<?xml version="1.0" encoding="UTF-8" standalone="no"?>
<!-- Created with Inkscape (http://www.inkscape.org/) -->

<svg
   xmlns:dc="http://purl.org/dc/elements/1.1/"
   xmlns:cc="http://creativecommons.org/ns#"
   xmlns:rdf="http://www.w3.org/1999/02/22-rdf-syntax-ns#"
   xmlns:svg="http://www.w3.org/2000/svg"
   xmlns="http://www.w3.org/2000/svg"
   xmlns:sodipodi="http://sodipodi.sourceforge.net/DTD/sodipodi-0.dtd"
   xmlns:inkscape="http://www.inkscape.org/namespaces/inkscape"
   width="23"
   height="24"
   id="svg2"
   version="1.1"
   inkscape:version="0.48.4 r9939"
   sodipodi:docname="postgissearch_logo.svg"
   inkscape:export-filename="C:\Projects\PostGIS_Search_Tool\PostGISSearch\postgissearch_logo.png"
   inkscape:export-xdpi="90"
   inkscape:export-ydpi="90">
  <defs
     id="defs4">
    <inkscape:perspective
       sodipodi:type="inkscape:persp3d"
       inkscape:vp_x="0 : 12 : 1"
       inkscape:vp_y="0 : 1000 : 0"
       inkscape:vp_z="23 : 12 : 1"
       inkscape:persp3d-origin="11.5 : 8 : 1"
       id="perspective2985" />
  </defs>
  <sodipodi:namedview
     id="base"
     pagecolor="#ffffff"
     bordercolor="#666666"
     borderopacity="1.0"
     inkscape:pageopacity="0.0"
     inkscape:pageshadow="2"
     inkscape:zoom="20.179013"
     inkscape:cx="4.6721368"
     inkscape:cy="11.36251"
     inkscape:document-units="px"
     inkscape:current-layer="layer1"
     showgrid="true"
     fit-margin-top="0"
     fit-margin-left="0"
     fit-margin-right="0"
     fit-margin-bottom="0"
     inkscape:snap-global="false"
     inkscape:window-width="1366"
     inkscape:window-height="706"
     inkscape:window-x="-8"
     inkscape:window-y="-8"
     inkscape:window-maximized="1">
    <inkscape:grid
       type="xygrid"
       id="grid3039"
       empspacing="5"
       visible="true"
       enabled="true"
       snapvisiblegridlinesonly="true" />
  </sodipodi:namedview>
  <metadata
     id="metadata7">
    <rdf:RDF>
      <cc:Work
         rdf:about="">
        <dc:format>image/svg+xml</dc:format>
        <dc:type
           rdf:resource="http://purl.org/dc/dcmitype/StillImage" />
        <dc:title></dc:title>
      </cc:Work>
    </rdf:RDF>
  </metadata>
  <g
     inkscape:label="Layer 1"
     inkscape:groupmode="layer"
     id="layer1"
     transform="translate(0,-1028.3622)">
    <path
       transform="translate(-3.803456,1025.9463)"
       sodipodi:type="arc"
       style="fill:#00b9ff;fill-opacity:1;stroke:#000000;stroke-width:0.1;stroke-miterlimit:4;stroke-opacity:1;stroke-dasharray:none"
       id="path3001-1-7-9"
       sodipodi:cx="14.346588"
       sodipodi:cy="17.285103"
       sodipodi:rx="5.6246557"
       sodipodi:ry="0.81768119"
       d="m 19.971244,17.285103 a 5.6246557,0.81768119 0 1 1 -11.2493116,0 5.6246557,0.81768119 0 1 1 11.2493116,0 z" />
    <path
       transform="translate(-3.7415107,1025.0172)"
       sodipodi:type="arc"
       style="fill:#00b9ff;fill-opacity:1;stroke:#000000;stroke-width:0.1;stroke-miterlimit:4;stroke-opacity:1;stroke-dasharray:none"
       id="path3001-1-7-9-4"
       sodipodi:cx="14.346588"
       sodipodi:cy="17.285103"
       sodipodi:rx="5.6246557"
       sodipodi:ry="0.81768119"
       d="m 19.971244,17.285103 a 5.6246557,0.81768119 0 1 1 -11.2493116,0 5.6246557,0.81768119 0 1 1 11.2493116,0 z" />
    <path
       transform="translate(-3.7415107,1024.0259)"
       sodipodi:type="arc"
       style="fill:#00b9ff;fill-opacity:1;stroke:#000000;stroke-width:0.1;stroke-miterlimit:4;stroke-opacity:1;stroke-dasharray:none"
       id="path3001-1-7-9-4-8"
       sodipodi:cx="14.346588"
       sodipodi:cy="17.285103"
       sodipodi:rx="5.6246557"
       sodipodi:ry="0.81768119"
       d="m 19.971244,17.285103 a 5.6246557,0.81768119 0 1 1 -11.2493116,0 5.6246557,0.81768119 0 1 1 11.2493116,0 z" />
    <path
       transform="translate(-3.7229269,1023.1774)"
       sodipodi:type="arc"
       style="fill:#00b9ff;fill-opacity:1;stroke:#000000;stroke-width:0.1;stroke-miterlimit:4;stroke-opacity:1;stroke-dasharray:none"
       id="path3001-1-7-9-8"
       sodipodi:cx="14.346588"
       sodipodi:cy="17.285103"
       sodipodi:rx="5.6246557"
       sodipodi:ry="0.81768119"
       d="m 19.971244,17.285103 a 5.6246557,0.81768119 0 1 1 -11.2493116,0 5.6246557,0.81768119 0 1 1 11.2493116,0 z" />
    <path
       transform="translate(-3.6609816,1022.3969)"
       sodipodi:type="arc"
       style="fill:#00b9ff;fill-opacity:1;stroke:#000000;stroke-width:0.1;stroke-miterlimit:4;stroke-opacity:1;stroke-dasharray:none"
       id="path3001-1-7-9-4-2"
       sodipodi:cx="14.346588"
       sodipodi:cy="17.285103"
       sodipodi:rx="5.6246557"
       sodipodi:ry="0.81768119"
       d="m 19.971244,17.285103 a 5.6246557,0.81768119 0 1 1 -11.2493116,0 5.6246557,0.81768119 0 1 1 11.2493116,0 z" />
    <path
       transform="translate(-3.6609816,1021.3066)"
       sodipodi:type="arc"
       style="fill:#00b9ff;fill-opacity:1;stroke:#000000;stroke-width:0.1;stroke-miterlimit:4;stroke-opacity:1;stroke-dasharray:none"
       id="path3001-1-7-9-4-8-4"
       sodipodi:cx="14.346588"
       sodipodi:cy="17.285103"
       sodipodi:rx="5.6246557"
       sodipodi:ry="0.81768119"
       d="m 19.971244,17.285103 a 5.6246557,0.81768119 0 1 1 -11.2493116,0 5.6246557,0.81768119 0 1 1 11.2493116,0 z" />
    <path
       transform="translate(-3.713635,1020.4982)"
       sodipodi:type="arc"
       style="fill:#00b9ff;fill-opacity:1;stroke:#000000;stroke-width:0.1;stroke-miterlimit:4;stroke-opacity:1;stroke-dasharray:none"
       id="path3001-1-7-9-5"
       sodipodi:cx="14.346588"
       sodipodi:cy="17.285103"
       sodipodi:rx="5.6246557"
       sodipodi:ry="0.81768119"
       d="m 19.971244,17.285103 a 5.6246557,0.81768119 0 1 1 -11.2493116,0 5.6246557,0.81768119 0 1 1 11.2493116,0 z" />
    <path
       transform="translate(-3.6516897,1019.5691)"
       sodipodi:type="arc"
       style="fill:#00b9ff;fill-opacity:1;stroke:#000000;stroke-width:0.1;stroke-miterlimit:4;stroke-opacity:1;stroke-dasharray:none"
       id="path3001-1-7-9-4-5"
       sodipodi:cx="14.346588"
       sodipodi:cy="17.285103"
       sodipodi:rx="5.6246557"
       sodipodi:ry="0.81768119"
       d="m 19.971244,17.285103 a 5.6246557,0.81768119 0 1 1 -11.2493116,0 5.6246557,0.81768119 0 1 1 11.2493116,0 z" />
    <path
       transform="translate(-3.6516897,1018.5778)"
       sodipodi:type="arc"
       style="fill:#00b9ff;fill-opacity:1;stroke:#000000;stroke-width:0.1;stroke-miterlimit:4;stroke-opacity:1;stroke-dasharray:none"
       id="path3001-1-7-9-4-8-1"
       sodipodi:cx="14.346588"
       sodipodi:cy="17.285103"
       sodipodi:rx="5.6246557"
       sodipodi:ry="0.81768119"
       d="m 19.971244,17.285103 a 5.6246557,0.81768119 0 1 1 -11.2493116,0 5.6246557,0.81768119 0 1 1 11.2493116,0 z" />
    <path
       transform="translate(-3.6331059,1017.7293)"
       sodipodi:type="arc"
       style="fill:#00b9ff;fill-opacity:1;stroke:#000000;stroke-width:0.1;stroke-miterlimit:4;stroke-opacity:1;stroke-dasharray:none"
       id="path3001-1-7-9-8-7"
       sodipodi:cx="14.346588"
       sodipodi:cy="17.285103"
       sodipodi:rx="5.6246557"
       sodipodi:ry="0.81768119"
       d="m 19.971244,17.285103 a 5.6246557,0.81768119 0 1 1 -11.2493116,0 5.6246557,0.81768119 0 1 1 11.2493116,0 z" />
    <path
       transform="translate(-3.5711606,1016.9488)"
       sodipodi:type="arc"
       style="fill:#00b9ff;fill-opacity:1;stroke:#000000;stroke-width:0.1;stroke-miterlimit:4;stroke-opacity:1;stroke-dasharray:none"
       id="path3001-1-7-9-4-2-1"
       sodipodi:cx="14.346588"
       sodipodi:cy="17.285103"
       sodipodi:rx="5.6246557"
       sodipodi:ry="0.81768119"
       d="m 19.971244,17.285103 a 5.6246557,0.81768119 0 1 1 -11.2493116,0 5.6246557,0.81768119 0 1 1 11.2493116,0 z" />
    <path
       transform="translate(-3.5711606,1015.8585)"
       sodipodi:type="arc"
       style="fill:#00b9ff;fill-opacity:1;stroke:#000000;stroke-width:0.1;stroke-miterlimit:4;stroke-opacity:1;stroke-dasharray:none"
       id="path3001-1-7-9-4-8-4-1"
       sodipodi:cx="14.346588"
       sodipodi:cy="17.285103"
       sodipodi:rx="5.6246557"
       sodipodi:ry="0.81768119"
       d="m 19.971244,17.285103 a 5.6246557,0.81768119 0 1 1 -11.2493116,0 5.6246557,0.81768119 0 1 1 11.2493116,0 z" />
    <path
       sodipodi:type="arc"
       style="fill:none;stroke:#000000;stroke-width:0.80000001;stroke-miterlimit:4;stroke-opacity:1;stroke-dasharray:none"
       id="path3928"
       sodipodi:cx="9.0688276"
       sodipodi:cy="20.679718"
       sodipodi:rx="8.8706026"
       sodipodi:ry="8.8706026"
       d="m 17.93943,20.679718 a 8.8706026,8.8706026 0 1 1 -17.74120498,0 8.8706026,8.8706026 0 1 1 17.74120498,0 z"
       transform="translate(1.7840317,1017.5093)" />
    <path
       style="fill:none;stroke:#000000;stroke-width:1px;stroke-linecap:butt;stroke-linejoin:miter;stroke-opacity:1"
       d="m 12.042214,1046.9605 c 7.08657,4.0141 7.08657,4.0141 7.08657,4.0141 l -1.784031,-6.8884"
       id="path3930"
       inkscape:connector-curvature="0" />
  </g>
</svg>
